<svg width="41" height="41" viewBox="0 0 41 41" fill="none" xmlns="http://www.w3.org/2000/svg">
<path d="M9.39587 27.3333C17.9375 31.6041 23.0625 31.6041 31.6042 27.3333" stroke="white" stroke-width="1.5" stroke-linecap="round" stroke-linejoin="round"/>
<path d="M26.4792 29.8958L28.1875 33.3125C28.1875 33.3125 35.3135 31.0433 37.5833 27.3333C37.5833 25.625 38.4889 13.4162 32.4583 9.39581C29.8958 7.68748 25.625 6.83331 25.625 6.83331L23.9167 10.25H20.5" stroke="white" stroke-width="1.5" stroke-linecap="round" stroke-linejoin="round"/>
<path d="M14.5692 29.8958L12.8609 33.3125C12.8609 33.3125 5.73487 31.0433 3.46505 27.3333C3.46505 25.625 2.55948 13.4162 8.59005 9.39581C11.1526 7.68748 15.4234 6.83331 15.4234 6.83331L17.1317 10.25H20.5484" stroke="white" stroke-width="1.5" stroke-linecap="round" stroke-linejoin="round"/>
<path d="M14.5209 23.9166C13.1056 23.9166 11.9584 22.387 11.9584 20.5C11.9584 18.613 13.1056 17.0833 14.5209 17.0833C15.9361 17.0833 17.0834 18.613 17.0834 20.5C17.0834 22.387 15.9361 23.9166 14.5209 23.9166Z" stroke="white" stroke-width="1.5" stroke-linecap="round" stroke-linejoin="round"/>
<path d="M26.4791 23.9166C25.0639 23.9166 23.9166 22.387 23.9166 20.5C23.9166 18.613 25.0639 17.0833 26.4791 17.0833C27.8943 17.0833 29.0416 18.613 29.0416 20.5C29.0416 22.387 27.8943 23.9166 26.4791 23.9166Z" stroke="white" stroke-width="1.5" stroke-linecap="round" stroke-linejoin="round"/>
</svg>
